<?xml version="1.0" encoding="utf-8"?>
<!-- Generator: Adobe Illustrator 24.0.2, SVG Export Plug-In . SVG Version: 6.00 Build 0)  -->
<svg version="1.1" id="Capa_1" xmlns="http://www.w3.org/2000/svg" xmlns:xlink="http://www.w3.org/1999/xlink" x="0px" y="0px"
	 viewBox="0 0 23 6" style="enable-background:new 0 0 23 6;" xml:space="preserve">
<style type="text/css">
	.st0{fill-rule:evenodd;clip-rule:evenodd;fill:#FFFFFF;}
</style>
<path class="st0" d="M22.9,2.7l-2.5-2.6C20.3,0,20,0,19.9,0.1l0,0c-0.2,0.2-0.2,0.4,0,0.6l1.8,1.8H0.4C0.2,2.6,0,2.7,0,3
	s0.2,0.4,0.4,0.4h21.2l-1.8,1.8c-0.2,0.2-0.2,0.4,0,0.6C19.9,5.9,20,6,20.1,6s0.2-0.1,0.3-0.1l2.5-2.6C23,3.1,23,2.9,22.9,2.7
	L22.9,2.7z"/>
</svg>
